<svg width="33" height="38" viewBox="0 0 33 38" fill="none" xmlns="http://www.w3.org/2000/svg">
<g id="Group 15">
<path id="Vector" d="M8.33936 9.93333C8.33936 12.0374 9.17519 14.0553 10.663 15.543C12.1508 17.0308 14.1686 17.8667 16.2727 17.8667C18.3767 17.8667 20.3946 17.0308 21.8824 15.543C23.3702 14.0553 24.206 12.0374 24.206 9.93333C24.206 7.82928 23.3702 5.81141 21.8824 4.32362C20.3946 2.83583 18.3767 2 16.2727 2C14.1686 2 12.1508 2.83583 10.663 4.32362C9.17519 5.81141 8.33936 7.82928 8.33936 9.93333Z" stroke="#858585" stroke-width="2.5" stroke-linecap="round" stroke-linejoin="round"/>
<path id="Vector_2" d="M1.53931 36C1.53931 32.0925 3.09156 28.345 5.8546 25.582C8.61764 22.8189 12.3651 21.2667 16.2726 21.2667C20.1802 21.2667 23.9276 22.8189 26.6907 25.582C29.4537 28.345 31.006 32.0925 31.006 36" stroke="#858585" stroke-width="2.5" stroke-linecap="round" stroke-linejoin="round"/>
</g>
</svg>
