<svg width="18" height="12" viewBox="0 0 18 12" fill="none" xmlns="http://www.w3.org/2000/svg">
<path d="M1.35938 1.05937H1.05938V1.35937V3.2625V3.54027L1.33632 3.56161C1.64448 3.58536 1.95429 3.54738 2.24758 3.44987C2.54087 3.35237 2.81176 3.19731 3.04436 2.99378C3.27696 2.79025 3.46661 2.54235 3.60218 2.26459C3.73776 1.98684 3.81654 1.68482 3.8339 1.37623L3.85173 1.05937H3.53437H1.35938ZM1.05938 10.6031V10.9031H1.35938H3.53437H3.85173L3.8339 10.5863C3.81654 10.2777 3.73776 9.97566 3.60218 9.69791C3.46661 9.42015 3.27696 9.17225 3.04436 8.96872C2.81176 8.76519 2.54087 8.61013 2.24758 8.51263C1.95429 8.41512 1.64448 8.37713 1.33632 8.40089L1.05938 8.42223V8.7V10.6031ZM16.0406 10.9031H16.3406V10.6031V8.7V8.41466L16.0556 8.40038C15.4435 8.36969 14.8441 8.58218 14.388 8.99152C13.9318 9.40087 13.656 9.97391 13.6205 10.5858L13.6021 10.9031H13.92H16.0406ZM16.0308 7.64046L16.3406 7.65062V7.34062V4.62187V4.31188L16.0308 4.32204C15.6274 4.33526 15.2254 4.26885 14.8477 4.1266C14.47 3.98435 14.1241 3.76906 13.8296 3.49303C13.5352 3.21699 13.298 2.88564 13.1318 2.5179C12.9655 2.15016 12.8733 1.75325 12.8605 1.34986L12.8513 1.05937H12.5606H4.83938H4.54875L4.53953 1.34986C4.52672 1.75325 4.43454 2.15016 4.26825 2.5179C4.10195 2.88564 3.86481 3.21699 3.57038 3.49303C3.27594 3.76906 2.92999 3.98435 2.5523 4.1266C2.1746 4.26885 1.77258 4.33526 1.3692 4.32204L1.05938 4.31188V4.62187V7.34062V7.65062L1.3692 7.64046C1.77258 7.62724 2.1746 7.69365 2.5523 7.8359C2.92999 7.97815 3.27594 8.19344 3.57038 8.46947C3.86481 8.74551 4.10195 9.07686 4.26825 9.4446C4.43454 9.81234 4.52672 10.2093 4.53953 10.6126L4.54875 10.9031H4.83938H12.5606H12.8513L12.8605 10.6126C12.8733 10.2093 12.9655 9.81234 13.1318 9.4446C13.298 9.07686 13.5352 8.74551 13.8296 8.46947C14.1241 8.19344 14.47 7.97815 14.8477 7.8359C15.2254 7.69365 15.6274 7.62724 16.0308 7.64046ZM16.0556 3.56212L16.3406 3.54784V3.2625V1.35937V1.05937H16.0406H13.92H13.6021L13.6205 1.37674C13.656 1.98859 13.9318 2.56163 14.388 2.97098C14.8441 3.38032 15.4435 3.59281 16.0556 3.56212ZM1.35938 0.3H16.0406C16.3216 0.3 16.591 0.411612 16.7897 0.610284C16.9884 0.808955 17.1 1.07841 17.1 1.35937V10.6031C17.1 10.8841 16.9884 11.1535 16.7897 11.3522C16.591 11.5509 16.3216 11.6625 16.0406 11.6625H1.35938C1.07841 11.6625 0.808955 11.5509 0.610284 11.3522C0.411612 11.1535 0.3 10.8841 0.3 10.6031V1.35937C0.3 1.07841 0.411612 0.808955 0.610284 0.610284C0.808955 0.411612 1.07841 0.3 1.35938 0.3Z" fill="white" stroke="white" stroke-width="0.6"/>
<path d="M8.58785 3.37245L8.59768 3.37277L8.6075 3.37245C9.01088 3.35923 9.4129 3.42564 9.7906 3.56789C10.1683 3.71013 10.5142 3.92543 10.8087 4.20146C11.1031 4.47749 11.3403 4.80885 11.5065 5.17659C11.6715 5.54144 11.7636 5.935 11.7775 6.33511C11.7636 6.73522 11.6715 7.12878 11.5065 7.49363C11.3403 7.86137 11.1031 8.19273 10.8087 8.46876C10.5142 8.74479 10.1683 8.96009 9.7906 9.10234C9.4129 9.24458 9.01088 9.31099 8.6075 9.29777L8.59768 9.29745L8.58785 9.29777C8.18447 9.31099 7.78245 9.24458 7.40475 9.10234C7.02706 8.96009 6.68111 8.74479 6.38667 8.46876C6.09224 8.19273 5.8551 7.86137 5.6888 7.49363C5.52382 7.12878 5.43178 6.73522 5.41784 6.33511C5.43178 5.935 5.52382 5.54144 5.6888 5.17659C5.8551 4.80885 6.09224 4.47749 6.38667 4.20146C6.68111 3.92543 7.02706 3.71013 7.40475 3.56789C7.78245 3.42564 8.18447 3.35923 8.58785 3.37245ZM6.17755 6.31774L6.17655 6.33511L6.17755 6.35248C6.21303 6.96433 6.48889 7.53736 6.94502 7.94671C7.39642 8.35181 7.98816 8.56411 8.59365 8.53874C8.89553 8.55951 9.19862 8.5211 9.48588 8.42561C9.77917 8.3281 10.0501 8.17304 10.2827 7.96951C10.5153 7.76599 10.7049 7.51808 10.8405 7.24033C10.9761 6.96257 11.0548 6.66055 11.0722 6.35197L11.0732 6.33511L11.0722 6.31826C11.0548 6.00967 10.9761 5.70765 10.8405 5.42989C10.7049 5.15214 10.5153 4.90423 10.2827 4.70071C10.0501 4.49718 9.77917 4.34212 9.48588 4.24461C9.19862 4.14912 8.89552 4.11071 8.59364 4.13148C7.98816 4.10611 7.39642 4.31841 6.94502 4.72351C6.48889 5.13286 6.21303 5.70589 6.17755 6.31774Z" fill="white" stroke="white" stroke-width="0.6"/>
</svg>
