<svg width="29" height="20" viewBox="0 0 29 20" fill="none" xmlns="http://www.w3.org/2000/svg">
<rect width="29" height="20" fill="#C3C3C3"/>
<g id="Liam" clip-path="url(#clip0_11229_26314)">
<rect width="430" height="932" transform="translate(-319 -90)" fill="#F7F7F7"/>
<rect id="Rectangle 11" x="-317" y="-90" width="430" height="129" fill="#D43333"/>
<g id="Group 16">
<g id="Group 1">
<path id="Vector" d="M35.7344 -4H11.2656C10.6647 -4 10.0885 -3.7613 9.66359 -3.33641C9.2387 -2.91153 9 -2.33526 9 -1.73438V13.6719C9 14.2728 9.2387 14.849 9.66359 15.2739C10.0885 15.6988 10.6647 15.9375 11.2656 15.9375H35.7344C36.3353 15.9375 36.9115 15.6988 37.3364 15.2739C37.7613 14.849 38 14.2728 38 13.6719V-1.73438C38 -2.33526 37.7613 -2.91153 37.3364 -3.33641C36.9115 -3.7613 36.3353 -4 35.7344 -4ZM11.2656 -1.73438H14.8906C14.8654 -1.28649 14.7511 -0.848137 14.5543 -0.445002C14.3575 -0.0418675 14.0823 0.317942 13.7447 0.613343C13.4071 0.908745 13.0139 1.1338 12.5882 1.27532C12.1625 1.41684 11.7129 1.47197 11.2656 1.4375V-1.73438ZM11.2656 13.6719V10.5C11.7129 10.4655 12.1625 10.5207 12.5882 10.6622C13.0139 10.8037 13.4071 11.0288 13.7447 11.3242C14.0823 11.6196 14.3575 11.9794 14.5543 12.3825C14.7511 12.7856 14.8654 13.224 14.8906 13.6719H11.2656ZM35.7344 13.6719H32.2C32.2515 12.7838 32.6519 11.9521 33.3139 11.358C33.9759 10.7639 34.846 10.4555 35.7344 10.5V13.6719ZM35.7344 8.23438C34.9964 8.21019 34.2609 8.33168 33.5699 8.59192C32.879 8.85216 32.2461 9.24603 31.7074 9.75102C31.1687 10.256 30.7349 10.8622 30.4307 11.535C30.1264 12.2078 29.9578 12.9339 29.9344 13.6719H17.0656C17.0422 12.9339 16.8736 12.2078 16.5693 11.535C16.2651 10.8622 15.8313 10.256 15.2926 9.75102C14.7539 9.24603 14.121 8.85216 13.4301 8.59192C12.7391 8.33168 12.0036 8.21019 11.2656 8.23438V3.70313C12.0036 3.72731 12.7391 3.60582 13.4301 3.34558C14.121 3.08534 14.7539 2.69147 15.2926 2.18648C15.8313 1.68149 16.2651 1.07528 16.5693 0.402511C16.8736 -0.270257 17.0422 -0.99639 17.0656 -1.73438H29.9344C29.9578 -0.99639 30.1264 -0.270257 30.4307 0.402511C30.7349 1.07528 31.1687 1.68149 31.7074 2.18648C32.2461 2.69147 32.879 3.08534 33.5699 3.34558C34.2609 3.60582 34.9964 3.72731 35.7344 3.70313V8.23438ZM35.7344 1.4375C34.846 1.48203 33.9759 1.17363 33.3139 0.579504C32.6519 -0.0146255 32.2515 -0.84633 32.2 -1.73438H35.7344V1.4375Z" fill="white"/>
<path id="Vector_2" d="M23.3293 1.12069C22.5913 1.0965 21.8558 1.218 21.1649 1.47824C20.4739 1.73847 19.841 2.13235 19.3023 2.63734C18.7637 3.14233 18.3298 3.74854 18.0256 4.42131C17.7214 5.09407 17.5527 5.82021 17.5293 6.55819C17.5527 7.29618 17.7214 8.02231 18.0256 8.69508C18.3298 9.36784 18.7637 9.97405 19.3023 10.479C19.841 10.984 20.4739 11.3779 21.1649 11.6381C21.8558 11.8984 22.5913 12.0199 23.3293 11.9957C24.0673 12.0199 24.8027 11.8984 25.4937 11.6381C26.1847 11.3779 26.8176 10.984 27.3563 10.479C27.8949 9.97405 28.3288 9.36784 28.633 8.69508C28.9372 8.02231 29.1059 7.29618 29.1293 6.55819C29.1059 5.82021 28.9372 5.09407 28.633 4.42131C28.3288 3.74854 27.8949 3.14233 27.3563 2.63734C26.8176 2.13235 26.1847 1.73847 25.4937 1.47824C24.8027 1.218 24.0673 1.0965 23.3293 1.12069ZM23.3293 9.73007C22.4409 9.7746 21.5709 9.4662 20.9088 8.87207C20.2468 8.27794 19.8464 7.44624 19.7949 6.55819C19.8464 5.67015 20.2468 4.83844 20.9088 4.24431C21.5709 3.65018 22.4409 3.34178 23.3293 3.38632C23.7766 3.35184 24.2262 3.40698 24.6519 3.5485C25.0776 3.69002 25.4708 3.91507 25.8084 4.21047C26.146 4.50588 26.4212 4.86568 26.618 5.26882C26.8148 5.67195 26.9291 6.11031 26.9543 6.55819C26.9291 7.00608 26.8148 7.44443 26.618 7.84756C26.4212 8.2507 26.146 8.61051 25.8084 8.90591C25.4708 9.20131 25.0776 9.42636 24.6519 9.56788C24.2262 9.7094 23.7766 9.76454 23.3293 9.73007Z" fill="white"/>
</g>
</g>
<g id="Rectangle 13">
<mask id="path-4-inside-1_11229_26314" fill="white">
<path d="M-319 -90H111V39H-319V-90Z"/>
</mask>
<path d="M-319 -90H111V39H-319V-90Z" fill="white"/>
<path d="M111 38H-319V40H111V38Z" fill="#DED9D9" mask="url(#path-4-inside-1_11229_26314)"/>
</g>
<g id="Frame 1988">
<g id="Group 17">
<g id="Group 1_2">
<path id="Vector_3" d="M2.26562 1.76562H1.76562V2.26562V5.4375V5.90044L2.2272 5.93602C2.7408 5.97561 3.25714 5.91229 3.74597 5.74979C4.23479 5.58728 4.68626 5.32885 5.07394 4.98963C5.46161 4.65042 5.77768 4.23724 6.00364 3.77432C6.2296 3.31139 6.36089 2.80803 6.38984 2.29372L6.41955 1.76562H5.89062H2.26562ZM27.9829 1.01714L28.3364 0.663586L27.9829 1.01714C28.314 1.34826 28.5 1.79735 28.5 2.26562V17.6719C28.5 18.1402 28.314 18.5892 27.9829 18.9204C27.6517 19.2515 27.2026 19.4375 26.7344 19.4375H2.26562C1.79735 19.4375 1.34826 19.2515 1.01714 18.9204C0.686021 18.5892 0.5 18.1401 0.5 17.6719V2.26562C0.5 1.79735 0.686021 1.34826 1.01714 1.01714C1.34826 0.686021 1.79735 0.5 2.26562 0.5H26.7344C27.2026 0.5 27.6517 0.686021 27.9829 1.01714ZM1.76562 17.6719V18.1719H2.26562H5.89062H6.41955L6.38984 17.6438C6.36089 17.1295 6.2296 16.6261 6.00364 16.1632C5.77768 15.7003 5.46161 15.2871 5.07394 14.9479C4.68626 14.6087 4.23479 14.3502 3.74597 14.1877C3.25715 14.0252 2.74081 13.9619 2.2272 14.0015L1.76562 14.0371V14.5V17.6719ZM26.7344 18.1719H27.2344V17.6719V14.5V14.0244L26.7594 14.0006C25.7392 13.9495 24.7402 14.3036 23.98 14.9859C23.2197 15.6681 22.76 16.6232 22.7008 17.6429L22.6702 18.1719H23.2H26.7344ZM26.718 12.7341L27.2344 12.751V12.2344V7.70313V7.18647L26.718 7.20339C26.0457 7.22543 25.3757 7.11475 24.7462 6.87767C24.1167 6.64059 23.5401 6.28176 23.0494 5.82171C22.5586 5.36166 22.1634 4.80939 21.8863 4.19649C21.6091 3.58359 21.4555 2.92208 21.4341 2.24976L21.4188 1.76562H20.9344H8.06563H7.58124L7.56588 2.24976C7.54454 2.92208 7.3909 3.58359 7.11375 4.19649C6.83659 4.80939 6.44135 5.36166 5.95063 5.82171C5.4599 6.28176 4.88331 6.64059 4.25383 6.87767C3.62434 7.11475 2.9543 7.22543 2.28201 7.20339L1.76562 7.18647V7.70313V12.2344V12.751L2.28201 12.7341C2.9543 12.7121 3.62434 12.8228 4.25383 13.0598C4.88331 13.2969 5.4599 13.6557 5.95063 14.1158C6.44135 14.5758 6.83659 15.1281 7.11375 15.741C7.3909 16.3539 7.54454 17.0154 7.56588 17.6877L7.58124 18.1719H8.06563H20.9344H21.4188L21.4341 17.6877C21.4555 17.0154 21.6091 16.3539 21.8863 15.741C22.1634 15.1281 22.5586 14.5758 23.0494 14.1158C23.5401 13.6557 24.1167 13.2969 24.7462 13.0598C25.3757 12.8228 26.0457 12.7121 26.718 12.7341ZM26.7594 5.93687L27.2344 5.91306V5.4375V2.26562V1.76562H26.7344H23.2H22.6702L22.7008 2.29457C22.76 3.31432 23.2197 4.26938 23.98 4.95163C24.7402 5.63387 25.7392 5.98801 26.7594 5.93687Z" fill="#FF4F4F" stroke="#FF4F4F"/>
<path id="Vector_4" d="M14.3129 5.62042L14.3293 5.62096L14.3457 5.62042C15.018 5.59839 15.688 5.70907 16.3175 5.94615C16.947 6.18323 17.5236 6.54205 18.0143 7.00211C18.505 7.46216 18.9003 8.01442 19.1774 8.62732C19.4524 9.2354 19.6058 9.89134 19.629 10.5582C19.6058 11.225 19.4524 11.881 19.1774 12.4891C18.9003 13.102 18.505 13.6542 18.0143 14.1143C17.5236 14.5743 16.947 14.9332 16.3175 15.1702C15.688 15.4073 15.018 15.518 14.3457 15.496L14.3293 15.4954L14.3129 15.496C13.6406 15.518 12.9706 15.4073 12.3411 15.1702C11.7116 14.9332 11.135 14.5743 10.6443 14.1143C10.1536 13.6542 9.75833 13.102 9.48118 12.4891C9.2062 11.881 9.05281 11.225 9.02957 10.5582C9.05281 9.89134 9.2062 9.2354 9.48118 8.62732C9.75833 8.01442 10.1536 7.46216 10.6443 7.00211C11.135 6.54205 11.7116 6.18323 12.3411 5.94615C12.9706 5.70907 13.6406 5.59839 14.3129 5.62042ZM10.2958 10.5292L10.2941 10.5582L10.2958 10.5871C10.3549 11.6069 10.8147 12.5619 11.5749 13.2442C12.3272 13.9194 13.3134 14.2732 14.3226 14.2309C14.8257 14.2655 15.3309 14.2015 15.8096 14.0424C16.2985 13.8798 16.7499 13.6214 17.1376 13.2822C17.5253 12.943 17.8414 12.5298 18.0673 12.0669C18.2933 11.604 18.4246 11.1006 18.4535 10.5863L18.4551 10.5582L18.4535 10.5301C18.4246 10.0158 18.2933 9.51242 18.0673 9.0495L17.618 9.26882L18.0673 9.0495C17.8414 8.58657 17.5253 8.1734 17.1376 7.83419C16.7499 7.49497 16.2985 7.23654 15.8096 7.07403C15.3309 6.91487 14.8257 6.85086 14.3226 6.88548C13.3134 6.84319 12.3272 7.19702 11.5749 7.87219C10.8147 8.55444 10.3549 9.5095 10.2958 10.5292Z" fill="#FF4F4F" stroke="#FF4F4F"/>
</g>
</g>
</g>
</g>
<defs>
<clipPath id="clip0_11229_26314">
<rect width="430" height="932" fill="white" transform="translate(-319 -90)"/>
</clipPath>
</defs>
</svg>
