<svg width="45" height="42" viewBox="0 0 45 42" fill="none" xmlns="http://www.w3.org/2000/svg">
<g id="Frame">
<g id="Group 13">
<path id="Vector" d="M8.21484 16.3478L16.5666 6" stroke="#858585" stroke-width="2.5" stroke-linecap="round" stroke-linejoin="round"/>
<path id="Vector_2" d="M36.0542 16.3478L27.7024 6" stroke="#858585" stroke-width="2.5" stroke-linecap="round" stroke-linejoin="round"/>
<path id="Vector_3" d="M35.0074 40H9.26161C8.65883 39.9884 8.07741 39.7609 7.61154 39.3545C7.14567 38.9482 6.82265 38.3866 6.69482 37.7609L2.72679 20.0218C2.62055 19.597 2.60585 19.1521 2.68377 18.7204C2.76168 18.2887 2.93022 17.8812 3.17686 17.5282C3.42349 17.1752 3.74187 16.8857 4.10833 16.6814C4.47479 16.477 4.87991 16.363 5.29357 16.3478H38.9755C39.3891 16.363 39.7943 16.477 40.1607 16.6814C40.5272 16.8857 40.8456 17.1752 41.0922 17.5282C41.3388 17.8812 41.5074 18.2887 41.5853 18.7204C41.6632 19.1521 41.6485 19.597 41.5423 20.0218L37.5742 37.7609C37.4464 38.3866 37.1234 38.9482 36.6575 39.3545C36.1916 39.7609 35.6102 39.9884 35.0074 40Z" stroke="#858585" stroke-width="2.5" stroke-linecap="round" stroke-linejoin="round"/>
<path id="Vector_4" d="M13.7827 22.2609V34.087" stroke="#858585" stroke-width="2.5" stroke-linecap="round" stroke-linejoin="round"/>
<path id="Vector_5" d="M22.1345 22.2609V34.087" stroke="#858585" stroke-width="2.5" stroke-linecap="round" stroke-linejoin="round"/>
<path id="Vector_6" d="M30.4863 22.2609V34.087" stroke="#858585" stroke-width="2.5" stroke-linecap="round" stroke-linejoin="round"/>
</g>
</g>
</svg>
