<svg width="41" height="38" viewBox="0 0 41 38" fill="none" xmlns="http://www.w3.org/2000/svg">
<g id="Group 14">
<path id="Vector" d="M7.00525 22.2356V36H17.0157V25.9895C17.0157 25.3258 17.2794 24.6892 17.7487 24.2199C18.218 23.7506 18.8546 23.4869 19.5183 23.4869H22.0209C22.6847 23.4869 23.3212 23.7506 23.7906 24.2199C24.2599 24.6892 24.5236 25.3258 24.5236 25.9895V36H34.534V22.2356" stroke="#858585" stroke-width="2.5" stroke-linecap="round" stroke-linejoin="round"/>
<path id="Vector_2" d="M2 19.733L18.9994 2.73357C19.2318 2.50101 19.5078 2.31652 19.8115 2.19065C20.1153 2.06479 20.4408 2 20.7696 2C21.0984 2 21.424 2.06479 21.7277 2.19065C22.0314 2.31652 22.3074 2.50101 22.5398 2.73357L39.5392 19.733" stroke="#858585" stroke-width="2.5" stroke-linecap="round" stroke-linejoin="round"/>
<path id="Vector_3" d="M28.2773 8.47124V5.96863H34.5339V14.7278" stroke="#858585" stroke-width="2.5" stroke-linecap="round" stroke-linejoin="round"/>
<path id="Vector_4" d="M3.25134 36H38.288" stroke="#858585" stroke-width="2.5" stroke-linecap="round" stroke-linejoin="round"/>
</g>
</svg>
