<svg width="25" height="25" viewBox="0 0 25 25" fill="none" xmlns="http://www.w3.org/2000/svg">
<g id="cart">
<g id="vuesax/linear/bag">
<g id="bag">
<path id="Vector" d="M9.30994 2.5L5.68994 6.13" stroke="#CE9D9D" stroke-width="2" stroke-miterlimit="10" stroke-linecap="round" stroke-linejoin="round"/>
<path id="Vector_2" d="M15.6899 2.5L19.3099 6.13" stroke="#CE9D9D" stroke-width="2" stroke-miterlimit="10" stroke-linecap="round" stroke-linejoin="round"/>
<path id="Vector_3" d="M2.5 8.3501C2.5 6.5001 3.49 6.3501 4.72 6.3501H20.28C21.51 6.3501 22.5 6.5001 22.5 8.3501C22.5 10.5001 21.51 10.3501 20.28 10.3501H4.72C3.49 10.3501 2.5 10.5001 2.5 8.3501Z" stroke="#CE9D9D" stroke-width="2"/>
<path id="Vector_4" d="M10.26 14.5V18.05" stroke="#CE9D9D" stroke-width="2" stroke-linecap="round"/>
<path id="Vector_5" d="M14.8601 14.5V18.05" stroke="#CE9D9D" stroke-width="2" stroke-linecap="round"/>
<path id="Vector_6" d="M4 10.5L5.41 19.14C5.73 21.08 6.5 22.5 9.36 22.5H15.39C18.5 22.5 18.96 21.14 19.32 19.26L21 10.5" stroke="#CE9D9D" stroke-width="2" stroke-linecap="round"/>
</g>
</g>
</g>
</svg>
