<svg width="29" height="20" viewBox="0 0 29 20" fill="none" xmlns="http://www.w3.org/2000/svg">
<g id="Group 1">
<path id="Vector" d="M26.7344 0H2.26562C1.66474 0 1.08847 0.238699 0.663586 0.663586C0.238699 1.08847 0 1.66474 0 2.26562L0 17.6719C0 18.2728 0.238699 18.849 0.663586 19.2739C1.08847 19.6988 1.66474 19.9375 2.26562 19.9375H26.7344C27.3353 19.9375 27.9115 19.6988 28.3364 19.2739C28.7613 18.849 29 18.2728 29 17.6719V2.26562C29 1.66474 28.7613 1.08847 28.3364 0.663586C27.9115 0.238699 27.3353 0 26.7344 0ZM2.26562 2.26562H5.89062C5.86542 2.71351 5.75108 3.15186 5.55431 3.555C5.35754 3.95813 5.08229 4.31794 4.74468 4.61334C4.40708 4.90875 4.01392 5.1338 3.58823 5.27532C3.16254 5.41684 2.71289 5.47197 2.26562 5.4375V2.26562ZM2.26562 17.6719V14.5C2.71289 14.4655 3.16254 14.5207 3.58823 14.6622C4.01392 14.8037 4.40708 15.0288 4.74468 15.3242C5.08229 15.6196 5.35754 15.9794 5.55431 16.3825C5.75108 16.7856 5.86542 17.224 5.89062 17.6719H2.26562ZM26.7344 17.6719H23.2C23.2515 16.7838 23.6519 15.9521 24.3139 15.358C24.9759 14.7639 25.846 14.4555 26.7344 14.5V17.6719ZM26.7344 12.2344C25.9964 12.2102 25.2609 12.3317 24.5699 12.5919C23.879 12.8522 23.2461 13.246 22.7074 13.751C22.1687 14.256 21.7349 14.8622 21.4307 15.535C21.1264 16.2078 20.9578 16.9339 20.9344 17.6719H8.06563C8.0422 16.9339 7.87356 16.2078 7.56933 15.535C7.2651 14.8622 6.83126 14.256 6.2926 13.751C5.75394 13.246 5.12103 12.8522 4.43005 12.5919C3.73908 12.3317 3.00359 12.2102 2.26562 12.2344V7.70313C3.00359 7.72731 3.73908 7.60582 4.43005 7.34558C5.12103 7.08534 5.75394 6.69147 6.2926 6.18648C6.83126 5.68149 7.2651 5.07528 7.56933 4.40251C7.87356 3.72974 8.0422 3.00361 8.06563 2.26562H20.9344C20.9578 3.00361 21.1264 3.72974 21.4307 4.40251C21.7349 5.07528 22.1687 5.68149 22.7074 6.18648C23.2461 6.69147 23.879 7.08534 24.5699 7.34558C25.2609 7.60582 25.9964 7.72731 26.7344 7.70313V12.2344ZM26.7344 5.4375C25.846 5.48203 24.9759 5.17363 24.3139 4.5795C23.6519 3.98537 23.2515 3.15367 23.2 2.26562H26.7344V5.4375Z" fill="white"/>
<path id="Vector_2" d="M14.3293 5.12069C13.5913 5.0965 12.8558 5.218 12.1649 5.47824C11.4739 5.73847 10.841 6.13235 10.3023 6.63734C9.76367 7.14233 9.32982 7.74854 9.02559 8.42131C8.72136 9.09407 8.55272 9.82021 8.5293 10.5582C8.55272 11.2962 8.72136 12.0223 9.02559 12.6951C9.32982 13.3678 9.76367 13.9741 10.3023 14.479C10.841 14.984 11.4739 15.3779 12.1649 15.6381C12.8558 15.8984 13.5913 16.0199 14.3293 15.9957C15.0673 16.0199 15.8027 15.8984 16.4937 15.6381C17.1847 15.3779 17.8176 14.984 18.3563 14.479C18.8949 13.9741 19.3288 13.3678 19.633 12.6951C19.9372 12.0223 20.1059 11.2962 20.1293 10.5582C20.1059 9.82021 19.9372 9.09407 19.633 8.42131C19.3288 7.74854 18.8949 7.14233 18.3563 6.63734C17.8176 6.13235 17.1847 5.73847 16.4937 5.47824C15.8027 5.218 15.0673 5.0965 14.3293 5.12069ZM14.3293 13.7301C13.4409 13.7746 12.5709 13.4662 11.9088 12.8721C11.2468 12.2779 10.8464 11.4462 10.7949 10.5582C10.8464 9.67015 11.2468 8.83844 11.9088 8.24431C12.5709 7.65018 13.4409 7.34178 14.3293 7.38632C14.7766 7.35184 15.2262 7.40698 15.6519 7.5485C16.0776 7.69002 16.4708 7.91507 16.8084 8.21047C17.146 8.50588 17.4212 8.86568 17.618 9.26882C17.8148 9.67195 17.9291 10.1103 17.9543 10.5582C17.9291 11.0061 17.8148 11.4444 17.618 11.8476C17.4212 12.2507 17.146 12.6105 16.8084 12.9059C16.4708 13.2013 16.0776 13.4264 15.6519 13.5679C15.2262 13.7094 14.7766 13.7645 14.3293 13.7301Z" fill="white"/>
</g>
</svg>
