<svg width="22" height="16" viewBox="0 0 22 16" fill="none" xmlns="http://www.w3.org/2000/svg">
<g id="Group 1">
<path id="Vector" d="M20.2812 0H1.71875C1.26291 0 0.825738 0.182348 0.50341 0.506931C0.181082 0.831513 0 1.27174 0 1.73077L0 13.5C0 13.959 0.181082 14.3993 0.50341 14.7238C0.825738 15.0484 1.26291 15.2308 1.71875 15.2308H20.2812C20.7371 15.2308 21.1743 15.0484 21.4966 14.7238C21.8189 14.3993 22 13.959 22 13.5V1.73077C22 1.27174 21.8189 0.831513 21.4966 0.506931C21.1743 0.182348 20.7371 0 20.2812 0ZM1.71875 1.73077H4.46875C4.44963 2.07292 4.36289 2.40779 4.21361 2.71575C4.06434 3.02372 3.85553 3.29859 3.59942 3.52425C3.3433 3.74992 3.04504 3.92184 2.72211 4.02995C2.39917 4.13806 2.05806 4.18018 1.71875 4.15385V1.73077ZM1.71875 13.5V11.0769C2.05806 11.0506 2.39917 11.0927 2.72211 11.2008C3.04504 11.3089 3.3433 11.4809 3.59942 11.7065C3.85553 11.9322 4.06434 12.2071 4.21361 12.515C4.36289 12.823 4.44963 13.1578 4.46875 13.5H1.71875ZM20.2812 13.5H17.6C17.6391 12.8216 17.9428 12.1862 18.445 11.7324C18.9473 11.2785 19.6073 11.0429 20.2812 11.0769V13.5ZM20.2812 9.34615C19.7214 9.32767 19.1635 9.42049 18.6393 9.61929C18.1151 9.81809 17.6349 10.119 17.2263 10.5048C16.8177 10.8905 16.4885 11.3536 16.2577 11.8676C16.027 12.3815 15.899 12.9362 15.8813 13.5H6.11875C6.10098 12.9362 5.97304 12.3815 5.74225 11.8676C5.51146 11.3536 5.18233 10.8905 4.77369 10.5048C4.36506 10.119 3.88492 9.81809 3.36073 9.61929C2.83654 9.42049 2.27858 9.32767 1.71875 9.34615V5.88462C2.27858 5.90309 2.83654 5.81028 3.36073 5.61148C3.88492 5.41268 4.36506 5.11179 4.77369 4.72601C5.18233 4.34023 5.51146 3.87714 5.74225 3.36319C5.97304 2.84925 6.10098 2.29454 6.11875 1.73077H15.8813C15.899 2.29454 16.027 2.84925 16.2577 3.36319C16.4885 3.87714 16.8177 4.34023 17.2263 4.72601C17.6349 5.11179 18.1151 5.41268 18.6393 5.61148C19.1635 5.81028 19.7214 5.90309 20.2812 5.88462V9.34615ZM20.2812 4.15385C19.6073 4.18787 18.9473 3.95227 18.445 3.4984C17.9428 3.04453 17.6391 2.40917 17.6 1.73077H20.2812V4.15385Z" fill="#D43333"/>
<path id="Vector_2" d="M10.8705 3.91185C10.3106 3.89337 9.75267 3.98619 9.22848 4.18499C8.70429 4.38379 8.22415 4.68468 7.81551 5.07046C7.40688 5.45623 7.07775 5.91933 6.84696 6.43327C6.61616 6.94722 6.48823 7.50193 6.47046 8.0657C6.48823 8.62946 6.61616 9.18417 6.84696 9.69812C7.07775 10.2121 7.40688 10.6752 7.81551 11.0609C8.22415 11.4467 8.70429 11.7476 9.22848 11.9464C9.75267 12.1452 10.3106 12.238 10.8705 12.2195C11.4303 12.238 11.9883 12.1452 12.5124 11.9464C13.0366 11.7476 13.5168 11.4467 13.9254 11.0609C14.334 10.6752 14.6632 10.2121 14.894 9.69812C15.1248 9.18417 15.2527 8.62946 15.2705 8.0657C15.2527 7.50193 15.1248 6.94722 14.894 6.43327C14.6632 5.91933 14.334 5.45623 13.9254 5.07046C13.5168 4.68468 13.0366 4.38379 12.5124 4.18499C11.9883 3.98619 11.4303 3.89337 10.8705 3.91185ZM10.8705 10.4888C10.1965 10.5228 9.53647 10.2872 9.03424 9.83333C8.53201 9.37946 8.22827 8.7441 8.18921 8.0657C8.22827 7.3873 8.53201 6.75194 9.03424 6.29806C9.53647 5.84419 10.1965 5.6086 10.8705 5.64262C11.2098 5.61628 11.5509 5.6584 11.8738 5.76651C12.1968 5.87462 12.495 6.04655 12.7511 6.27221C13.0072 6.49788 13.216 6.77275 13.3653 7.08071C13.5146 7.38868 13.6013 7.72354 13.6205 8.0657C13.6013 8.40785 13.5146 8.74272 13.3653 9.05068C13.216 9.35865 13.0072 9.63351 12.7511 9.85918C12.495 10.0848 12.1968 10.2568 11.8738 10.3649C11.5509 10.473 11.2098 10.5151 10.8705 10.4888Z" fill="#D43333"/>
</g>
</svg>
